<?xml version="1.0" standalone="no"?>
<!DOCTYPE svg PUBLIC "-//W3C//DTD SVG 20010904//EN"
 "http://www.w3.org/TR/2001/REC-SVG-20010904/DTD/svg10.dtd">
<svg version="1.0" xmlns="http://www.w3.org/2000/svg"
 width="260.000000pt" height="260.000000pt" viewBox="0 0 260.000000 260.000000"
 preserveAspectRatio="xMidYMid meet">
<metadata>
Created by potrace 1.11, written by Peter Selinger 2001-2013
</metadata>
<g transform="translate(0.000000,260.000000) scale(0.100000,-0.100000)"
fill="#000000" stroke="none">
<path d="M0 1300 l0 -1300 1300 0 1300 0 0 1300 0 1300 -1300 0 -1300 0 0
-1300z m885 899 c4 -17 16 -40 26 -50 10 -10 19 -30 19 -43 0 -14 7 -31 15
-40 8 -8 15 -20 15 -26 0 -7 6 -24 14 -38 30 -56 93 -198 100 -225 4 -15 11
-25 16 -22 6 3 10 -3 10 -15 0 -12 14 -52 31 -88 17 -37 37 -80 45 -97 7 -16
38 -83 69 -149 l56 -118 19 22 c11 13 20 28 20 35 0 6 11 34 25 61 14 27 25
59 25 71 0 12 8 29 17 39 10 9 18 23 19 31 1 7 12 29 23 49 12 19 21 42 21 50
0 8 5 14 10 14 6 0 10 9 10 19 0 11 5 23 10 26 6 3 10 15 10 26 0 10 4 19 10
19 5 0 14 17 20 39 5 21 17 44 25 51 8 7 15 22 15 34 0 11 9 35 19 52 10 17
22 45 26 62 3 18 10 32 15 32 4 0 13 15 20 33 28 72 35 87 42 87 5 0 8 9 8 19
0 11 4 23 10 26 5 3 10 15 10 26 0 36 16 19 29 -31 7 -27 16 -50 21 -50 4 0
15 -25 25 -55 9 -30 21 -55 25 -55 5 0 14 -25 21 -55 7 -31 18 -55 25 -55 7 0
15 -18 19 -39 4 -22 15 -50 26 -62 10 -12 19 -29 19 -37 0 -8 9 -31 19 -51 39
-73 81 -170 81 -185 0 -8 6 -21 14 -28 7 -8 17 -25 21 -38 7 -26 33 -86 66
-155 22 -47 24 -81 6 -88 -8 -3 -20 -26 -27 -51 -7 -25 -16 -46 -19 -46 -4 0
-13 -22 -21 -50 -7 -27 -19 -51 -26 -54 -7 -3 -16 -21 -19 -40 -4 -19 -13 -40
-21 -47 -8 -6 -14 -18 -14 -26 0 -7 -16 -45 -35 -84 -19 -39 -35 -79 -35 -89
0 -10 -6 -20 -14 -23 -7 -3 -16 -21 -20 -41 -4 -19 -13 -39 -20 -43 -7 -5 -18
-30 -26 -58 -7 -27 -19 -57 -27 -67 -8 -9 -16 -22 -17 -30 -5 -30 -18 -58 -27
-58 -5 0 -9 -8 -9 -18 0 -10 -8 -33 -18 -52 l-17 -35 -433 3 c-360 2 -432 5
-432 16 0 8 -7 17 -16 20 -9 4 -14 9 -11 12 3 3 -15 48 -39 100 -24 51 -44
100 -44 108 0 8 -6 16 -14 19 -8 3 -17 24 -21 46 -3 21 -12 42 -19 44 -7 3
-16 19 -19 35 -3 16 -13 36 -21 44 -8 8 -18 32 -21 52 -4 20 -10 36 -14 36 -4
0 -15 23 -25 50 -10 28 -22 50 -27 50 -5 0 -9 8 -9 18 0 10 -16 50 -35 89 -19
39 -35 78 -35 87 0 9 -4 16 -10 16 -5 0 -15 19 -21 43 -7 23 -18 47 -24 52 -6
6 -18 31 -25 58 -8 26 -18 47 -22 47 -4 0 -15 25 -23 55 -9 30 -21 55 -26 55
-5 0 -11 12 -15 28 -8 34 -46 116 -57 120 -4 2 -7 10 -7 17 0 7 -8 30 -18 52
-52 108 -62 130 -68 156 -3 15 -9 27 -13 27 -5 0 -14 19 -21 43 -8 23 -22 58
-32 77 -36 70 -81 175 -79 186 1 7 -5 14 -14 18 -8 3 -15 12 -15 21 0 13 51
15 434 15 l434 0 7 -31z m1705 17 c0 -8 -5 -18 -11 -21 -6 -4 -8 -13 -5 -21 3
-8 -1 -14 -9 -14 -9 0 -17 -15 -21 -40 -4 -22 -11 -40 -16 -40 -5 0 -6 -5 -2
-12 5 -7 2 -9 -9 -5 -12 4 -14 2 -10 -10 4 -10 2 -14 -4 -10 -6 4 -8 -3 -5
-18 2 -15 0 -25 -7 -25 -6 0 -11 -9 -11 -21 0 -14 -5 -19 -13 -16 -10 4 -13
-2 -9 -19 2 -14 0 -24 -7 -24 -7 0 -10 -4 -6 -10 5 -8 -42 -110 -51 -110 -5 0
8 32 22 55 7 11 15 34 18 51 6 31 5 31 -54 44 -33 7 -65 19 -71 26 -6 8 -21
14 -33 14 -12 0 -31 7 -43 15 -12 8 -30 16 -41 18 -10 1 -30 10 -43 18 -13 9
-41 19 -61 23 -21 4 -41 13 -45 20 -5 8 -26 17 -48 20 -21 4 -42 11 -46 17 -3
6 -12 12 -20 13 -66 15 -81 21 -86 32 -3 8 -9 12 -13 9 -5 -3 -12 0 -17 7 -4
7 -17 13 -27 13 -11 0 -21 6 -23 12 -5 13 77 16 580 21 209 2 247 0 247 -12z
m-190 -435 c0 -5 -7 -11 -14 -14 -10 -4 -13 -1 -9 9 6 15 23 19 23 5z m-50
-101 c-7 -16 -16 -30 -20 -30 -4 0 0 15 9 34 20 41 29 38 11 -4z m-48 -107
c-6 -2 -10 -8 -7 -13 3 -4 -3 -14 -12 -21 -9 -8 -14 -9 -11 -4 2 6 8 18 11 28
4 9 12 17 19 16 10 0 10 -2 0 -6z m-81 -180 c-12 -20 -14 -14 -5 12 4 9 9 14
11 11 3 -2 0 -13 -6 -23z"/>
</g>
</svg>
